
<svg width="479" height="396" viewBox="0 0 479 396" fill="none" xmlns="http://www.w3.org/2000/svg">
<g clip-path="url(#clip0_4011_1999)">
<path d="M-110.655 -368.742C-109.435 -367.129 -108.207 -365.524 -106.979 -363.911C-103.985 -359.989 -100.886 -355.938 -97.9676 -351.857C-94.2766 -346.701 -90.8053 -341.325 -87.9025 -336.751C-83.537 -329.884 -79.179 -322.842 -74.965 -316.035L-72.3881 -311.871C-68.2726 -305.23 -64.1799 -298.575 -60.1023 -291.919L-58.488 -289.284C-54.7439 -283.182 -50.9998 -277.079 -47.3088 -270.938L-45.1866 -267.417C-41.6093 -261.481 -37.9031 -255.348 -34.4622 -249.2C-31.7261 -244.309 -28.5808 -238.493 -26.0266 -232.451C-23.2603 -225.909 -20.6682 -219.17 -18.1595 -212.644C-16.9469 -209.501 -15.7342 -206.352 -14.5064 -203.217L-13.7182 -201.203C-12.2478 -197.447 -10.7244 -193.563 -9.11005 -189.8L-7.82161 -186.794C-5.74493 -181.918 -3.60004 -176.875 -1.15199 -172.082C2.94831 -164.048 7.98843 -156.31 13.8243 -149.079C18.4552 -143.347 24.1623 -138.199 30.794 -133.784C33.4846 -131.99 36.2055 -130.233 38.9264 -128.477C42.2763 -126.311 45.7476 -124.07 49.1051 -121.791C57.0405 -116.407 63.4296 -109.245 68.0908 -100.499C71.706 -93.7226 75.1849 -87.0519 77.974 -79.9799C80.5812 -73.3925 83.4764 -66.366 87.0234 -59.665C90.7599 -52.6006 95.5272 -44.5595 102.568 -38.5551C105.062 -36.4275 107.813 -34.5346 110.481 -32.7098C111.678 -31.8845 112.876 -31.0667 114.051 -30.2187L116.991 -28.1213C118.931 -26.7433 120.872 -25.3652 122.782 -23.9493C126.238 -21.4052 128.284 -17.6799 130.27 -14.0682L130.725 -13.2429C134.211 -6.9357 137.038 0.211975 139.615 9.24503C140.138 11.0849 140.653 12.9249 141.169 14.7648C143.473 22.9877 145.86 31.4983 148.975 39.6303C151.446 46.0965 154.925 52.3356 159.609 58.7185C165.391 66.6006 172.933 72.8019 180.224 78.8062L181.33 79.7149C185.279 82.9631 189.395 86.5143 192.51 91.0043C198.035 98.9621 201.771 106.466 203.954 113.954C205.561 119.481 207.145 125.016 208.721 130.551C209.851 134.496 210.98 138.441 212.117 142.386C214.322 150.048 218.18 157.226 223.902 164.329C225.903 166.82 227.965 169.258 230.019 171.703C233.134 175.406 236.362 179.237 239.326 183.152C242.729 187.642 245.624 192.533 248.239 197.152C253.415 206.283 257.455 216.876 260.57 229.521C261.874 234.791 262.973 240.212 264.041 245.452L265.512 252.675C267.543 262.7 269.65 273.073 273.462 282.78C277.502 293.047 283.118 300.604 290.636 305.897C294.494 308.607 298.541 311.174 302.46 313.65C304.559 314.975 306.659 316.308 308.743 317.663C315.951 322.365 321.157 326.885 325.114 331.906C329.146 337.016 332.579 342.885 335.315 349.358C339.332 358.861 341.977 369.628 343.637 383.242C344.509 390.389 344.903 397.908 344.842 406.237C344.789 413.089 344.736 420.85 342.826 428.195C342.371 429.959 341.985 431.776 341.621 433.533C341.409 434.563 341.189 435.585 340.962 436.607C340.947 436.66 340.931 436.713 340.909 436.758L341.197 435.214C341.545 433.359 341.886 431.511 342.212 429.649C342.326 428.982 342.455 428.316 342.584 427.65C342.932 425.825 343.288 423.932 343.44 422.047C344.592 408.13 344.372 395.864 342.781 384.544C341.75 377.237 340.598 370.801 339.256 364.858C337.399 356.642 334.11 348.624 329.199 340.34C323.454 330.649 314.814 322.683 302.028 315.278C296.268 311.947 290.227 308.168 285.088 303.163C281.496 299.673 278.813 295.561 275.925 290.943C270.893 282.886 268.755 273.626 266.702 264.676L266.656 264.464C265.443 259.202 264.314 253.826 263.223 248.632C261.987 242.756 260.714 236.691 259.312 230.755C255.681 215.354 250.043 201.884 242.092 189.58C238.151 183.485 233.414 177.98 228.904 172.862C222.318 165.396 217.46 158.415 214.057 151.51C211.98 147.3 210.639 142.613 209.35 138.078L208.797 136.139C208.069 133.61 207.38 131.074 206.682 128.53C204.682 121.17 202.613 113.56 199.543 106.382C195.064 95.9107 188.902 87.6121 180.724 81.0096L179.966 80.3963C173.069 74.8311 165.937 69.0766 160.397 61.8986C155.372 55.387 151.87 49.6552 149.384 43.8553C146.012 35.9807 143.602 27.6291 141.275 19.5501L139.615 13.8108C137.652 6.99622 135.613 -0.0454407 132.301 -6.52682C131.596 -7.89731 130.929 -9.28293 130.262 -10.6685C129.459 -12.3268 128.656 -13.9925 127.799 -15.6205C124.722 -21.5037 119.53 -25.1456 114.483 -28.3712C109.336 -31.6573 104.008 -35.057 99.5593 -39.5697C95.9971 -43.1739 93.1852 -47.4367 90.4643 -51.5482L89.7822 -52.5703C85.1211 -59.5969 81.7863 -67.3049 78.8759 -74.5813C76.3066 -81.0172 73.2825 -87.2412 70.4024 -93.0638C68.3182 -97.2812 65.9308 -101.544 63.3084 -105.731C60.0266 -110.986 55.5322 -115.59 49.9616 -119.436C46.5889 -121.761 43.1025 -124.047 39.7373 -126.266C37.5773 -127.689 35.4097 -129.105 33.2572 -130.551C22.7904 -137.563 15.325 -144.491 9.76195 -152.35C4.08519 -160.369 -0.234917 -167.35 -3.84258 -174.308C-4.64596 -175.86 -5.3205 -177.511 -5.94198 -179.071C-7.95802 -184.151 -9.95891 -189.24 -11.9674 -194.335C-14.37 -200.431 -16.7725 -206.518 -19.1827 -212.606L-19.9709 -214.582C-23.1769 -222.676 -26.4965 -231.043 -30.7105 -238.872C-31.7261 -240.75 -32.6735 -242.665 -33.6285 -244.581C-34.8942 -247.125 -36.2054 -249.76 -37.6454 -252.266C-40.1465 -256.643 -42.8447 -260.997 -45.4519 -265.214C-46.3235 -266.615 -47.1875 -268.023 -48.0515 -269.424C-50.6512 -273.656 -53.2508 -277.889 -55.858 -282.114C-59.8901 -288.656 -63.9146 -295.198 -67.9164 -301.763C-70.4706 -305.95 -73.002 -310.152 -75.5334 -314.362C-78.3528 -319.041 -81.1723 -323.728 -84.022 -328.385L-84.5071 -329.18C-88.4179 -335.563 -92.4576 -342.165 -96.6564 -348.518C-99.4607 -352.75 -102.454 -356.96 -105.35 -361.026C-106.752 -362.987 -108.146 -364.956 -109.533 -366.932C-109.874 -367.44 -110.17 -367.932 -110.466 -368.431L-110.655 -368.742Z" fill="#BAAA9E"/>
<path d="M283.755 270.666C275.387 271.498 268.142 270.355 261.624 267.19C255.212 264.071 249.186 259.482 243.191 253.175C237.749 247.443 233.967 240.538 230.322 233.86C229.223 231.853 228.124 229.847 226.987 227.87C224.289 223.191 221.644 218.481 218.991 213.772C216.967 210.16 214.936 206.556 212.89 202.959C210.919 199.507 208.888 196.084 206.857 192.67L205.099 189.701C201.764 184.068 197.436 179.071 193.245 174.232L192.646 173.543C188.5 168.751 183.604 164.624 178.875 160.634L177.973 159.876C173.297 155.924 168.165 152.449 163.209 149.087L160.746 147.413C157.994 145.536 154.985 143.938 152.075 142.401C151.022 141.841 149.968 141.288 148.93 140.713C146.148 139.183 143.351 137.684 140.562 136.177C134.961 133.156 129.171 130.036 123.585 126.796C118.613 123.911 114.286 120.451 110.708 116.513L110.026 115.764C106.934 112.356 103.728 108.836 100.764 105.231C99.0743 103.18 97.7252 100.84 96.414 98.576C91.2602 89.6641 84.6437 77.8219 79.1943 65.1696C77.8073 61.9441 76.2839 58.7185 74.8136 55.599C72.9718 51.692 71.0695 47.6563 69.4172 43.5979C67.5528 39.0246 65.2639 34.5951 63.0432 30.3095C61.9518 28.197 60.8528 26.0845 59.8069 23.9493C59.0414 22.382 58.0865 20.8979 57.1618 19.4517C56.6161 18.6037 56.0704 17.7481 55.555 16.8773C54.3272 14.7951 53.1221 12.6977 51.9171 10.6004C49.6812 6.70853 47.362 2.68796 44.967 -1.19632C42.9813 -4.42186 40.8288 -7.60956 38.7521 -10.6912C37.6532 -12.3192 36.5618 -13.9395 35.478 -15.575C32.0219 -20.8222 27.6715 -26.1375 22.1766 -31.8239C18.0157 -36.1322 13.5819 -40.0392 10.1789 -42.9543C5.16151 -47.2701 -0.0226059 -51.3361 -3.97133 -54.4027C-6.29811 -56.2047 -8.67038 -57.9614 -11.0426 -59.7104C-13.8242 -61.7624 -16.7042 -63.89 -19.463 -66.0782C-24.4956 -70.0685 -28.2245 -73.2865 -31.5593 -76.512C-35.508 -80.3357 -39.2218 -84.5456 -42.8143 -88.6116C-46.1112 -92.352 -48.8018 -96.8799 -51.553 -103.308C-55.4259 -112.379 -58.4424 -122.684 -60.7616 -134.807C-62.9596 -146.263 -64.536 -157.681 -66.2262 -171.31C-66.2944 -171.847 -66.3474 -172.392 -66.4005 -172.938C-66.5218 -174.119 -66.643 -175.338 -66.9007 -176.519C-67.0296 -177.102 -66.8552 -177.36 -66.5293 -177.625C-66.4839 -177.057 -66.446 -176.489 -66.4156 -175.921C-66.302 -174.217 -66.1883 -172.453 -65.9306 -170.734C-64.6421 -162.156 -63.2248 -153.07 -61.3376 -141.265L-60.9587 -138.842C-60.4509 -135.533 -59.9203 -132.119 -59.0866 -128.832C-57.6011 -123.002 -55.9261 -117.437 -54.1147 -112.288C-52.6217 -108.048 -50.8178 -103.157 -48.294 -98.6744C-44.8 -92.4732 -41.1393 -87.4002 -37.1148 -83.1751C-29.1037 -74.7781 -20.418 -67.7894 -12.9753 -62.0577C-5.21429 -56.0836 4.97961 -48.1409 14.9689 -39.7136C22.3964 -33.4518 29.2176 -25.8649 35.2657 -17.1651C40.3513 -9.84323 44.823 -2.80154 48.9233 4.36887C50.1587 6.52679 51.485 8.67717 52.7659 10.767C54.3803 13.3868 56.0477 16.105 57.5483 18.846C60.1025 23.5101 62.543 28.3409 64.9001 33.0051C65.6807 34.5573 66.469 36.1094 67.2572 37.6541C68.8564 40.7887 70.5465 44.1354 72.1533 47.5578C73.1689 49.7234 74.1314 51.9116 75.094 54.0998C75.6624 55.387 76.2233 56.6742 76.7993 57.9538C77.3147 59.0971 77.8225 60.2405 78.3303 61.3838C79.6718 64.4125 81.0663 67.5396 82.5443 70.5758C85.8867 77.4358 88.7137 83.0388 91.4421 88.2027C99.7034 103.816 108.723 114.916 119.849 123.131C124.404 126.5 129.497 129.158 134.416 131.725C135.424 132.255 136.439 132.785 137.447 133.315C138.44 133.845 139.426 134.398 140.403 134.95C141.388 135.511 142.381 136.071 143.382 136.601C153.386 141.909 163.103 147.239 172.031 153.993C177.95 158.476 182.99 162.648 187.439 166.752C196.633 175.224 204.659 185.552 211.298 197.44C214.413 203.02 217.596 208.562 220.772 214.113C223.023 218.027 225.267 221.949 227.487 225.871L228.222 227.166C230.375 230.96 232.596 234.882 234.536 238.857C237.31 244.536 241.251 249.154 245.086 253.304C249.709 258.293 255.257 262.45 261.593 265.646C266.565 268.159 271.855 268.992 276.85 269.628C277.903 269.765 278.98 269.818 280.026 269.871C280.89 269.908 281.754 269.954 282.618 270.037C282.928 270.067 283.254 270.257 283.603 270.454C283.671 270.491 283.739 270.529 283.808 270.567C283.808 270.567 283.762 270.65 283.739 270.688L283.755 270.666Z" fill="#BAAA9E"/>
<path d="M377.198 279.661C376.826 279.752 376.447 279.57 375.932 279.275C375.704 279.146 375.485 279.025 375.265 278.942C373.097 278.116 370.952 277.238 368.807 276.36C364.957 274.785 360.971 273.149 356.939 271.87C344.153 267.819 334.186 266.327 324.636 267.031C319.088 267.44 313.465 268.076 308.023 268.682C305.393 268.977 302.771 269.265 300.141 269.538C295.586 270.007 291.038 270.461 286.483 270.901C286.278 270.916 286.051 270.87 285.824 270.825C285.786 270.817 285.748 270.81 285.71 270.802C285.574 270.151 285.846 269.992 285.968 269.924C286.134 269.833 286.377 269.765 286.703 269.734C287.832 269.621 288.961 269.553 290.098 269.485L291.614 269.394C292.562 269.333 293.509 269.28 294.456 269.227C296.571 269.114 298.754 268.992 300.891 268.735C303.407 268.432 305.908 268.061 308.417 267.69C310.88 267.327 313.343 266.956 315.822 266.66C322.749 265.82 329.055 265.759 335.103 266.479C340.674 267.137 346.51 268.319 353.452 270.204C360.349 272.074 366.996 274.883 373.423 277.609L373.885 277.806C374.795 278.192 375.674 278.737 376.523 279.26C376.75 279.396 376.97 279.54 377.198 279.676V279.661Z" fill="#BAAA9E"/>
<path d="M422.157 286.316C421.103 286.521 420.012 286.725 418.958 286.718L416.488 286.695C411.364 286.649 406.066 286.604 400.882 286.218C394.887 285.779 389.028 283.848 384.003 282.069C383.42 281.864 382.829 281.675 382.245 281.478C381.283 281.168 380.328 280.857 379.395 280.479C379.365 280.463 379.327 280.448 379.297 280.433C379.782 280.569 380.275 280.706 380.76 280.842C382.859 281.425 385.027 282.031 387.134 282.697C393.568 284.741 399.76 285.938 406.074 286.362C411.326 286.71 416.632 286.627 422.301 286.097C422.399 286.089 422.528 286.142 422.665 286.218C422.498 286.248 422.331 286.278 422.172 286.309L422.157 286.316Z" fill="#BAAA9E"/>
<path d="M459.537 277.912C458.817 278.298 458.059 278.533 457.263 278.608L459.537 277.912Z" fill="#BAAA9E"/>
<path d="M451.882 280.41C451.458 280.653 451.033 280.766 450.366 280.796L452.094 280.281C452.018 280.327 451.95 280.372 451.882 280.41Z" fill="#BAAA9E"/>
<path d="M433.457 284.817L433.45 284.795L436.254 284.181V284.189L433.457 284.817Z" fill="#BAAA9E"/>
<path d="M438.027 283.939L438.02 283.909L440.703 283.394V283.401L438.027 283.939Z" fill="#BAAA9E"/>
<path d="M426.75 285.862C426.098 286.112 425.393 286.15 424.635 286.112C425.257 285.756 425.977 285.779 426.742 285.87L426.75 285.862Z" fill="#BAAA9E"/>
<path d="M463.501 276.609C463.615 276.443 463.751 276.322 463.895 276.238C464.084 276.132 464.304 276.087 464.539 276.079L463.501 276.609Z" fill="#BAAA9E"/>
<path d="M471.641 273.535C471.103 273.8 470.557 274.073 470.019 274.338C469.928 274.156 469.837 273.967 469.739 273.785C470.277 273.513 470.815 273.24 471.353 272.967C471.451 273.157 471.542 273.346 471.641 273.535Z" fill="#BAAA9E"/>
<path d="M443.394 282.894C443.045 283.091 442.719 283.121 442.31 282.97V282.826L443.704 282.682C443.598 282.773 443.492 282.841 443.394 282.902V282.894Z" fill="#BAAA9E"/>
<path d="M431.38 285.233C431.123 285.385 430.88 285.377 430.615 285.264L431.471 285.173C431.471 285.173 431.411 285.218 431.373 285.233H431.38Z" fill="#BAAA9E"/>
<path d="M478.924 270.226C478.606 270.469 478.288 270.703 477.969 270.946C477.886 270.847 477.81 270.749 477.727 270.65C478.03 270.393 478.333 270.135 478.636 269.87C478.735 269.992 478.826 270.105 478.924 270.226Z" fill="#BAAA9E"/>
<path d="M475.847 270.991C476.006 271.044 476.158 271.09 476.317 271.143C476.203 271.347 476.09 271.552 475.976 271.756C475.84 271.65 475.597 271.559 475.582 271.438C475.567 271.302 475.749 271.143 475.847 270.991Z" fill="#BAAA9E"/>
<path d="M474.218 272.498C473.816 272.672 473.407 272.839 473.005 273.013C472.937 272.892 472.876 272.771 472.808 272.649C473.202 272.392 473.589 272.127 473.983 271.87C474.066 272.082 474.142 272.286 474.225 272.498H474.218Z" fill="#BAAA9E"/>
<path d="M468.928 274.709C468.094 274.921 467.722 275.019 467.344 275.118C467.518 274.898 467.654 274.633 467.874 274.482C467.98 274.406 468.23 274.55 468.928 274.709Z" fill="#BAAA9E"/>
<path d="M446.569 281.978C446.584 281.94 446.599 281.902 446.622 281.864C446.652 281.872 446.675 281.879 446.69 281.887C446.69 281.887 446.69 281.887 446.683 281.887C446.668 281.894 446.66 281.94 446.66 282L446.577 281.97L446.569 281.978Z" fill="#BAAA9E"/>
</g>
<defs>
<clipPath id="clip0_4011_1999">
<rect width="479" height="396" fill="white"/>
</clipPath>
</defs>
</svg>
