<svg width="380" height="166" viewBox="0 0 380 166" fill="none" xmlns="http://www.w3.org/2000/svg">
<g clip-path="url(#clip0_4011_2019)">
<g clip-path="url(#clip1_4011_2019)">
<path d="M563.381 320.543C561.975 319.95 560.567 319.364 559.155 318.773C555.718 317.339 552.163 315.86 548.716 314.294C544.357 312.316 540.059 310.112 536.435 308.218C530.99 305.376 525.484 302.417 520.16 299.558L516.904 297.808C511.708 295.02 506.521 292.214 501.343 289.402L499.294 288.289C494.543 285.713 489.792 283.136 485.062 280.515L482.346 279.014C477.767 276.484 473.03 273.873 468.46 271.153C464.826 268.988 460.575 266.373 456.625 263.388C452.348 260.155 448.11 256.728 444.007 253.408C442.029 251.812 440.047 250.21 438.062 248.625L436.786 247.605C434.408 245.705 431.946 243.741 429.47 241.89L427.494 240.412C424.296 238.008 420.991 235.521 417.582 233.311C411.869 229.607 405.654 226.451 399.111 223.926C393.92 221.927 388.247 220.715 382.246 220.332C379.81 220.174 377.368 220.053 374.927 219.931C371.92 219.78 368.805 219.625 365.75 219.402C358.531 218.878 351.652 216.607 345.304 212.649C340.384 209.583 335.592 206.535 331.1 202.965C326.909 199.643 322.365 196.142 317.517 193.1C312.409 189.892 306.258 186.435 299.389 185.167C296.956 184.717 294.444 184.518 292.011 184.332C290.917 184.245 289.825 184.162 288.737 184.051L286.024 183.79C284.235 183.621 282.447 183.452 280.664 183.248C277.445 182.889 274.701 181.226 272.04 179.614L271.431 179.246C266.772 176.439 262.227 172.833 257.133 167.901C256.097 166.896 255.065 165.887 254.034 164.879C249.425 160.373 244.652 155.711 239.547 151.57C235.491 148.276 230.863 145.51 225.392 143.105C218.637 140.135 211.367 138.927 204.335 137.754L203.269 137.577C199.462 136.944 195.432 136.176 191.701 134.416C185.086 131.3 179.812 127.805 175.559 123.733C172.422 120.726 169.298 117.706 166.178 114.683C163.951 112.53 161.724 110.377 159.492 108.228C155.159 104.051 149.928 100.815 143.507 98.3313C141.259 97.458 138.991 96.6422 136.726 95.8186C133.292 94.5738 129.736 93.2877 126.321 91.8471C122.402 90.1962 118.664 88.0914 115.211 86.0589C108.381 82.0432 101.743 76.6431 94.9345 69.5528C92.0935 66.5998 89.329 63.4706 86.653 60.4488L82.9656 56.2817C77.8544 50.4949 72.5621 44.5091 66.4067 39.6023C59.8911 34.4151 53.3681 31.5948 46.4561 30.9724C42.9114 30.6563 39.2971 30.5058 35.8014 30.366C33.929 30.2921 32.0538 30.2133 30.1799 30.1138C23.6939 29.7602 18.5843 28.7703 14.1036 26.9817C9.53914 25.1624 5.08023 22.622 0.848478 19.4227C-5.36361 14.7268 -11.1563 8.68665 -17.3793 0.413602C-20.6467 -3.92995 -23.742 -8.69623 -26.8457 -14.1637C-29.3973 -18.6632 -32.2917 -23.7566 -33.8153 -29.2785C-34.1838 -30.6034 -34.617 -31.9372 -35.0422 -33.2228C-35.2921 -33.976 -35.5342 -34.7272 -35.7714 -35.4812C-35.7815 -35.5216 -35.7916 -35.5619 -35.7938 -35.6002L-35.3992 -34.4818C-34.9269 -33.1376 -34.4526 -31.8011 -33.9626 -30.4605C-33.7855 -29.982 -33.6182 -29.4979 -33.451 -29.0137C-32.9902 -27.6893 -32.5086 -26.3174 -31.8961 -25.0277C-27.3967 -15.4955 -22.6236 -7.56003 -17.311 -0.76094C-13.8796 3.62647 -10.6975 7.39888 -7.57733 10.7781C-3.26299 15.4477 1.91339 19.448 8.24998 23.0095C15.663 27.1769 24.317 29.1233 35.4694 29.1387C40.4919 29.1428 45.8663 29.333 51.1141 30.6655C54.7798 31.5915 58.0853 33.2666 61.716 35.1962C68.0461 38.5634 72.9381 43.8102 77.6584 48.8856L77.7682 49.007C80.5469 51.9893 83.314 55.0774 85.9878 58.061C89.0129 61.4357 92.1342 64.9198 95.2911 68.2712C103.477 76.9687 112.246 83.6461 122.087 88.6889C126.963 91.186 132.137 92.9967 137.017 94.6408C144.14 97.0356 149.95 99.7658 154.781 102.996C157.727 104.964 160.373 107.521 162.927 110L164.02 111.058C165.45 112.437 166.858 113.835 168.274 115.235C172.36 119.291 176.584 123.484 181.3 127.018C188.18 132.173 195.339 135.272 203.177 136.502L203.904 136.617C210.512 137.652 217.346 138.723 223.676 141.324C229.419 143.684 233.871 146.11 237.685 148.963C242.861 152.838 247.589 157.388 252.159 161.791L255.41 164.916C259.265 168.63 263.255 172.464 267.866 175.451C268.844 176.081 269.803 176.735 270.762 177.389C271.913 178.17 273.067 178.955 274.241 179.696C278.473 182.381 283.241 182.803 287.758 183.006C292.362 183.212 297.128 183.424 301.739 184.695C305.428 185.707 308.875 187.432 312.205 189.093L313.036 189.504C318.735 192.338 323.824 196.118 328.473 199.776C332.581 203.014 336.907 205.941 340.987 208.661C343.941 210.631 347.111 212.517 350.405 214.264C354.533 216.461 359.209 217.774 364.302 218.186C367.383 218.433 370.525 218.612 373.562 218.792C375.512 218.908 377.463 219.015 379.416 219.148C388.903 219.782 396.398 221.493 403.001 224.531C409.738 227.631 415.196 230.564 420.181 233.751C421.291 234.463 422.355 235.287 423.35 236.072C426.586 238.633 429.814 241.204 433.05 243.777C436.921 246.855 440.789 249.927 444.662 252.997L445.923 253.992C451.073 258.073 456.401 262.29 462.11 265.817C463.483 266.661 464.825 267.556 466.172 268.448C467.96 269.633 469.811 270.861 471.699 271.956C474.985 273.873 478.392 275.701 481.688 277.474C482.786 278.061 483.883 278.655 484.976 279.245C488.273 281.031 491.57 282.816 494.868 284.594C499.973 287.349 505.073 290.107 510.166 292.888C513.416 294.661 516.657 296.453 519.9 298.25C523.509 300.244 527.121 302.244 530.741 304.213L531.358 304.549C536.324 307.246 541.456 310.038 546.598 312.606C550.029 314.314 553.574 315.937 557.001 317.502C558.658 318.255 560.313 319.015 561.965 319.784C562.38 319.987 562.759 320.197 563.14 320.412L563.381 320.543Z" fill="#BAAA9E"/>
<path d="M64.2512 51.406C69.4062 47.7038 74.5739 45.7168 80.0289 45.3259C85.3975 44.9454 91.0678 45.671 97.3669 47.5316C103.087 49.2248 108.166 52.3116 113.069 55.3014C114.545 56.1983 116.02 57.0952 117.509 57.958C121.039 59.9986 124.545 62.079 128.057 64.1566C130.743 65.7539 133.431 67.3435 136.126 68.9223C138.717 70.4356 141.336 71.9063 143.953 73.372L146.222 74.6487C150.528 77.0727 155.243 78.7063 159.809 80.2874L160.46 80.5118C164.979 82.0804 169.737 82.9302 174.334 83.7539L175.209 83.9085C179.758 84.7274 184.423 85.0629 188.932 85.3899L191.174 85.5542C193.681 85.7435 196.251 85.6523 198.733 85.5588C199.633 85.5275 200.531 85.4912 201.426 85.4755C203.822 85.4256 206.216 85.3502 208.608 85.2826C213.409 85.1438 218.371 84.9978 223.245 85.0082C227.584 85.0177 231.719 85.6465 235.543 86.8703L236.272 87.1029C239.579 88.1632 243.004 89.2549 246.301 90.4926C248.18 91.1961 249.945 92.2164 251.657 93.2015C258.389 97.0823 267.183 102.327 275.52 108.541C277.644 110.126 279.858 111.66 281.996 113.144C284.674 115.003 287.441 116.923 290.053 118.953C292.998 121.239 296.165 123.27 299.234 125.234C300.745 126.203 302.261 127.169 303.75 128.17C304.842 128.906 306.027 129.516 307.177 130.112C307.853 130.46 308.533 130.814 309.199 131.189C310.787 132.086 312.366 133.003 313.946 133.919C316.876 135.619 319.909 137.372 322.941 139.008C325.456 140.367 328.066 141.638 330.587 142.869C331.919 143.518 333.244 144.166 334.57 144.826C338.81 146.952 343.659 148.785 349.397 150.428C353.743 151.674 358.116 152.555 361.44 153.176C366.349 154.104 371.272 154.806 375.011 155.32C377.212 155.62 379.425 155.873 381.636 156.121C384.229 156.413 386.914 156.717 389.543 157.106C394.339 157.815 397.991 158.512 401.388 159.362C405.412 160.371 409.429 161.721 413.311 163.024C416.878 164.225 420.346 166.169 424.57 169.333C430.525 173.801 436.386 179.399 442.477 186.448C448.238 193.108 453.578 199.977 459.826 208.248C460.074 208.574 460.314 208.91 460.555 209.247C461.08 209.973 461.619 210.724 462.233 211.399C462.538 211.732 462.521 211.966 462.408 212.262C462.164 211.908 461.925 211.551 461.69 211.191C460.973 210.12 460.233 209.01 459.416 207.984C455.336 202.862 450.98 197.457 445.292 190.453L444.129 189.012C442.549 187.041 440.913 185.009 439.128 183.175C435.956 179.925 432.761 176.919 429.634 174.237C427.058 172.028 424.033 169.511 420.691 167.534C416.067 164.799 411.759 162.864 407.534 161.621C399.128 159.155 390.813 157.864 383.785 156.926C376.457 155.95 366.796 154.605 357.086 152.865C349.868 151.575 342.546 149.19 335.309 145.785C329.221 142.918 323.641 140.003 318.254 136.863C316.632 135.918 314.954 135.013 313.328 134.13C311.284 133.027 309.168 131.879 307.153 130.654C303.723 128.569 300.304 126.332 297.003 124.172C295.907 123.452 294.806 122.735 293.708 122.023C291.48 120.577 289.112 119.027 286.77 117.397C285.289 116.364 283.834 115.297 282.379 114.23C281.521 113.603 280.669 112.973 279.809 112.354C279.041 111.801 278.277 111.245 277.514 110.69C275.494 109.216 273.402 107.698 271.29 106.271C266.516 103.048 262.554 100.452 258.822 98.1062C247.529 91.0177 237.444 87.1653 227.071 85.9938C222.822 85.5102 218.49 85.695 214.306 85.8734C213.447 85.9073 212.583 85.9441 211.724 85.978C210.875 86.0062 210.022 86.0168 209.175 86.0244C208.319 86.03 207.459 86.0384 206.605 86.0695C198.062 86.3753 189.699 86.5576 181.314 85.5119C175.753 84.8156 170.884 83.9904 166.427 82.9867C157.22 80.9175 148.076 77.1952 139.249 71.9299C135.107 69.4576 130.934 67.0357 126.764 64.6061C123.815 62.8966 120.868 61.1793 117.937 59.4535L116.967 58.8845C114.129 57.2171 111.197 55.4912 108.428 53.6249C104.472 50.9595 100.153 49.4276 96.0798 48.1624C91.1746 46.6454 85.9793 46.0217 80.6317 46.3241C76.433 46.5572 72.6607 48.0093 69.1559 49.4784C68.4159 49.7869 67.6924 50.1584 66.9887 50.5184C66.4096 50.8198 65.8277 51.1162 65.2315 51.3878C65.017 51.4853 64.7325 51.4845 64.4303 51.4873C64.3714 51.4883 64.3125 51.4893 64.2537 51.4903C64.2537 51.4903 64.252 51.4187 64.2525 51.3854L64.2512 51.406Z" fill="#BAAA9E"/>
<path d="M-0.223117 80.7901C-0.0146585 80.5905 0.30161 80.5663 0.749937 80.5648C0.947141 80.5631 1.13654 80.5594 1.31164 80.5309C3.04001 80.2524 4.77354 80.0171 6.50705 79.7818C9.61814 79.3583 12.8413 78.9229 15.9598 78.2378C25.8463 76.0605 32.9239 73.2744 38.9003 69.2101C42.3724 66.8491 45.8084 64.311 49.1368 61.8614C50.7444 60.6759 52.35 59.4981 53.9662 58.3274C56.7664 56.3015 59.5674 54.2884 62.3791 52.2823C62.5072 52.1951 62.6729 52.139 62.8387 52.0829C62.8663 52.0736 62.894 52.0642 62.9216 52.0549C63.2565 52.429 63.1382 52.636 63.0846 52.7263C63.0099 52.8486 62.8771 52.9847 62.6755 53.1275C61.9802 53.6279 61.2678 54.0986 60.5504 54.5722L59.5939 55.2037C58.9974 55.6008 58.3982 55.993 57.7989 56.3852C56.4596 57.2574 55.0785 58.1604 53.7786 59.1353C52.2482 60.2828 50.7533 61.4693 49.2535 62.6585C47.7806 63.8257 46.3105 64.9978 44.802 66.1262C40.5911 69.2899 36.4922 71.7092 32.2673 73.5215C28.3774 75.1932 24.1169 76.6234 18.8674 78.0109C13.6533 79.3912 8.24831 80.0634 3.01844 80.707L2.64195 80.7528C1.90171 80.8436 1.1213 80.819 0.369253 80.7978C0.169191 80.7945 -0.0287759 80.7834 -0.228838 80.7801L-0.223117 80.7901Z" fill="#BAAA9E"/>
</g>
</g>
<defs>
<clipPath id="clip0_4011_2019">
<rect width="380" height="166" fill="white"/>
</clipPath>
<clipPath id="clip1_4011_2019">
<rect width="445" height="608" fill="white" transform="translate(563.381 320.543) rotate(150)"/>
</clipPath>
</defs>
</svg>