<svg width="5825" height="5825" viewBox="0 0 5825 5825" fill="none" xmlns="http://www.w3.org/2000/svg">
<circle cx="2912.5" cy="2912.5" r="2912.5" fill="#BAAA9E"/>
<path d="M1717 2555.38C1717 2422.36 1757.35 2292.47 1832.73 2182.86C1908.1 2073.26 2014.94 1989.1 2139.15 1941.49C2263.36 1893.88 2399.09 1885.07 2528.41 1916.23C2657.73 1947.38 2774.56 2017.02 2863.47 2115.96C2869.73 2122.66 2877.3 2128 2885.71 2131.65C2894.12 2135.3 2903.19 2137.18 2912.36 2137.18C2921.52 2137.18 2930.59 2135.3 2939 2131.65C2947.41 2128 2954.98 2122.66 2961.25 2115.96C3049.88 2016.38 3166.73 1946.15 3296.26 1914.62C3425.79 1883.09 3561.85 1891.76 3686.34 1939.47C3810.82 1987.18 3917.82 2071.67 3993.09 2181.7C4068.37 2291.72 4108.35 2422.07 4107.71 2555.38C4107.71 2829.11 3928.41 3033.52 3749.11 3212.82L3092.62 3847.92C3070.34 3873.5 3042.88 3894.05 3012.06 3908.2C2981.23 3922.35 2947.74 3929.78 2913.83 3930C2879.91 3930.21 2846.33 3923.2 2815.33 3909.44C2784.33 3895.68 2756.61 3875.49 2734.01 3850.19L2075.61 3212.82C1896.3 3033.52 1717 2830.31 1717 2555.38Z" fill="white" stroke="white" stroke-width="239.071" stroke-linecap="round" stroke-linejoin="round"/>
</svg>
